<svg width="68" height="68" viewBox="0 0 68 68" fill="none" xmlns="http://www.w3.org/2000/svg">
<g clip-path="url(#clip0_1_2337)">
<path d="M65.875 55.2495C65.875 55.8131 65.6511 56.3536 65.2526 56.7521C64.8541 57.1506 64.3136 57.3745 63.75 57.3745H4.25C3.68641 57.3745 3.14591 57.1506 2.7474 56.7521C2.34888 56.3536 2.125 55.8131 2.125 55.2495C2.125 54.6859 2.34888 54.1454 2.7474 53.7469C3.14591 53.3484 3.68641 53.1245 4.25 53.1245H63.75C64.3136 53.1245 64.8541 53.3484 65.2526 53.7469C65.6511 54.1454 65.875 54.6859 65.875 55.2495ZM4.32969 26.0786C4.2033 25.6329 4.22598 25.1582 4.39429 24.7266C4.5626 24.2951 4.86731 23.9303 5.26203 23.6879L32.887 6.68794C33.2218 6.48213 33.607 6.37317 34 6.37317C34.393 6.37317 34.7782 6.48213 35.113 6.68794L62.738 23.6879C63.1328 23.93 63.4377 24.2945 63.6064 24.7259C63.775 25.1573 63.798 25.6319 63.672 26.0776C63.546 26.5233 63.2778 26.9156 62.9083 27.1949C62.5388 27.4741 62.0882 27.625 61.625 27.6245H55.25V44.6245H59.5C60.0636 44.6245 60.6041 44.8484 61.0026 45.2469C61.4011 45.6454 61.625 46.1859 61.625 46.7495C61.625 47.3131 61.4011 47.8536 61.0026 48.2521C60.6041 48.6506 60.0636 48.8745 59.5 48.8745H8.5C7.93641 48.8745 7.39591 48.6506 6.9974 48.2521C6.59888 47.8536 6.375 47.3131 6.375 46.7495C6.375 46.1859 6.59888 45.6454 6.9974 45.2469C7.39591 44.8484 7.93641 44.6245 8.5 44.6245H12.75V27.6245H6.375C5.91225 27.6247 5.4621 27.4738 5.09294 27.1947C4.72378 26.9157 4.45579 26.5238 4.32969 26.0786ZM38.25 42.4995C38.25 43.0631 38.4739 43.6036 38.8724 44.0021C39.2709 44.4006 39.8114 44.6245 40.375 44.6245C40.9386 44.6245 41.4791 44.4006 41.8776 44.0021C42.2761 43.6036 42.5 43.0631 42.5 42.4995V29.7495C42.5 29.1859 42.2761 28.6454 41.8776 28.2469C41.4791 27.8484 40.9386 27.6245 40.375 27.6245C39.8114 27.6245 39.2709 27.8484 38.8724 28.2469C38.4739 28.6454 38.25 29.1859 38.25 29.7495V42.4995ZM25.5 42.4995C25.5 43.0631 25.7239 43.6036 26.1224 44.0021C26.5209 44.4006 27.0614 44.6245 27.625 44.6245C28.1886 44.6245 28.7291 44.4006 29.1276 44.0021C29.5261 43.6036 29.75 43.0631 29.75 42.4995V29.7495C29.75 29.1859 29.5261 28.6454 29.1276 28.2469C28.7291 27.8484 28.1886 27.6245 27.625 27.6245C27.0614 27.6245 26.5209 27.8484 26.1224 28.2469C25.7239 28.6454 25.5 29.1859 25.5 29.7495V42.4995Z" fill="#14191F"/>
</g>
<defs>
<clipPath id="clip0_1_2337">
<rect width="68" height="68" fill="white"/>
</clipPath>
</defs>
</svg>
