<svg width="36" height="36" viewBox="0 0 36 36" fill="none" xmlns="http://www.w3.org/2000/svg">
<g clip-path="url(#clip0_1_2317)">
<path d="M29.25 6.75H6.75C5.85489 6.75 4.99645 7.10558 4.36351 7.73851C3.73058 8.37145 3.375 9.22989 3.375 10.125V25.875C3.375 26.7701 3.73058 27.6286 4.36351 28.2615C4.99645 28.8944 5.85489 29.25 6.75 29.25H29.25C30.1451 29.25 31.0036 28.8944 31.6365 28.2615C32.2694 27.6286 32.625 26.7701 32.625 25.875V10.125C32.625 9.22989 32.2694 8.37145 31.6365 7.73851C31.0036 7.10558 30.1451 6.75 29.25 6.75ZM21.3075 17.5514C21.1499 18.3114 20.7352 18.9938 20.1333 19.4837C19.5313 19.9736 18.7789 20.2411 18.0028 20.2411C17.2267 20.2411 16.4743 19.9736 15.8724 19.4837C15.2704 18.9938 14.8557 18.3114 14.6981 17.5514C14.5945 17.0422 14.3179 16.5846 13.9152 16.2562C13.5125 15.9279 13.0085 15.749 12.4889 15.75H5.625V13.5H30.375V15.75H23.5111C22.9924 15.7503 22.4898 15.9297 22.0883 16.258C21.6867 16.5863 21.4109 17.0432 21.3075 17.5514ZM6.75 9H29.25C29.5484 9 29.8345 9.11853 30.0455 9.3295C30.2565 9.54048 30.375 9.82663 30.375 10.125V11.25H5.625V10.125C5.625 9.82663 5.74353 9.54048 5.9545 9.3295C6.16548 9.11853 6.45163 9 6.75 9Z" fill="#14191F"/>
</g>
<defs>
<clipPath id="clip0_1_2317">
<rect width="36" height="36" fill="white"/>
</clipPath>
</defs>
</svg>
