<svg width="36" height="36" viewBox="0 0 36 36" fill="none" xmlns="http://www.w3.org/2000/svg">
<g clip-path="url(#clip0_1_2324)">
<path d="M23.625 21.375C23.625 22.2701 23.2694 23.1286 22.6365 23.7615C22.0036 24.3944 21.1451 24.75 20.25 24.75H14.625V18H20.25C21.1451 18 22.0036 18.3556 22.6365 18.9885C23.2694 19.6214 23.625 20.4799 23.625 21.375ZM32.625 18C32.625 20.8926 31.7673 23.7201 30.1602 26.1252C28.5532 28.5303 26.2691 30.4048 23.5968 31.5117C20.9244 32.6187 17.9838 32.9083 15.1468 32.344C12.3098 31.7797 9.70391 30.3868 7.65857 28.3414C5.61323 26.2961 4.22033 23.6902 3.65602 20.8532C3.09171 18.0162 3.38134 15.0756 4.48827 12.4033C5.5952 9.73089 7.46972 7.44677 9.87479 5.83976C12.2799 4.23274 15.1075 3.375 18 3.375C21.8775 3.37909 25.5951 4.92125 28.3369 7.66309C31.0788 10.4049 32.6209 14.1225 32.625 18ZM25.875 21.375C25.8748 20.4544 25.6486 19.548 25.2163 18.7352C24.7841 17.9224 24.1589 17.2281 23.3958 16.7133C23.9656 16.1556 24.377 15.4565 24.5879 14.6875C24.7988 13.9186 24.8016 13.1074 24.5961 12.337C24.3905 11.5666 23.9839 10.8647 23.4179 10.3031C22.852 9.74145 22.1469 9.34028 21.375 9.14062V7.875C21.375 7.57663 21.2565 7.29048 21.0455 7.0795C20.8345 6.86853 20.5484 6.75 20.25 6.75C19.9516 6.75 19.6655 6.86853 19.4545 7.0795C19.2435 7.29048 19.125 7.57663 19.125 7.875V9H16.875V7.875C16.875 7.57663 16.7565 7.29048 16.5455 7.0795C16.3345 6.86853 16.0484 6.75 15.75 6.75C15.4516 6.75 15.1655 6.86853 14.9545 7.0795C14.7435 7.29048 14.625 7.57663 14.625 7.875V9H12.375C12.0766 9 11.7905 9.11853 11.5795 9.3295C11.3685 9.54048 11.25 9.82663 11.25 10.125C11.25 10.4234 11.3685 10.7095 11.5795 10.9205C11.7905 11.1315 12.0766 11.25 12.375 11.25V24.75C12.0766 24.75 11.7905 24.8685 11.5795 25.0795C11.3685 25.2905 11.25 25.5766 11.25 25.875C11.25 26.1734 11.3685 26.4595 11.5795 26.6705C11.7905 26.8815 12.0766 27 12.375 27H14.625V28.125C14.625 28.4234 14.7435 28.7095 14.9545 28.9205C15.1655 29.1315 15.4516 29.25 15.75 29.25C16.0484 29.25 16.3345 29.1315 16.5455 28.9205C16.7565 28.7095 16.875 28.4234 16.875 28.125V27H19.125V28.125C19.125 28.4234 19.2435 28.7095 19.4545 28.9205C19.6655 29.1315 19.9516 29.25 20.25 29.25C20.5484 29.25 20.8345 29.1315 21.0455 28.9205C21.2565 28.7095 21.375 28.4234 21.375 28.125V26.8861C22.6447 26.6256 23.7857 25.9351 24.6054 24.9311C25.4252 23.9271 25.8736 22.6711 25.875 21.375ZM22.5 13.5C22.5 12.9033 22.263 12.331 21.841 11.909C21.419 11.4871 20.8467 11.25 20.25 11.25H14.625V15.75H20.25C20.8467 15.75 21.419 15.5129 21.841 15.091C22.263 14.669 22.5 14.0967 22.5 13.5Z" fill="#14191F"/>
</g>
<defs>
<clipPath id="clip0_1_2324">
<rect width="36" height="36" fill="white"/>
</clipPath>
</defs>
</svg>
