<svg width="81" height="32" viewBox="0 0 81 32" fill="none" xmlns="http://www.w3.org/2000/svg">
<g clip-path="url(#clip0_1_2280)">
<path d="M0.589844 24.5029H5.28242V16.9474C5.28242 14.1509 6.65042 12.8766 8.42299 12.8766C10.1018 12.8766 10.9396 14.1817 10.9396 16.3257V24.5029H15.6344V15.5177C15.6344 11.4457 13.4264 8.61829 9.6047 8.61829C7.58413 8.61829 6.02984 9.488 5.28242 10.544V1.18743H0.589844V24.5029ZM21.6333 6.84457C23.2813 6.84457 24.5853 5.53943 24.5853 3.92229C24.5853 2.30629 23.2801 1 21.6333 1C20.023 1.00914 18.7201 2.312 18.7121 3.92229C18.7201 5.53143 20.023 6.83543 21.6333 6.84457ZM19.303 24.5029H23.9944V8.95886H19.3018V24.5029H19.303ZM27.8493 31H32.5441V22.9474C33.1647 23.7874 34.6881 24.8446 36.7704 24.8446C40.8413 24.8446 43.983 21.1451 43.983 16.7314C43.983 12.3166 40.8424 8.61829 36.7704 8.61829C34.6881 8.61829 33.1647 9.67429 32.5441 10.5131V8.95886H27.8493V31ZM35.7144 20.5851C33.6001 20.5851 32.1704 18.9691 32.1704 16.7314C32.1704 14.4926 33.6001 12.8766 35.7144 12.8766C37.8264 12.8766 39.2573 14.4926 39.2573 16.7314C39.2573 18.9691 37.8264 20.5851 35.7144 20.5851ZM46.127 31H50.8207V22.9474C51.4413 23.7874 52.9647 24.8446 55.047 24.8446C59.119 24.8446 62.2584 21.1451 62.2584 16.7314C62.2584 12.3166 59.119 8.61829 55.0481 8.61829C52.9647 8.61829 51.4424 9.67429 50.8207 10.5131V8.95886H46.127V31ZM53.991 20.5851C51.8767 20.5851 50.447 18.9691 50.447 16.7314C50.447 14.4926 51.8767 12.8766 53.991 12.8766C56.1041 12.8766 57.5338 14.4926 57.5338 16.7314C57.5338 18.9691 56.1041 20.5851 53.991 20.5851ZM71.615 24.8446C76.0904 24.8446 79.7898 21.3006 79.7898 16.7314C79.7898 12.1611 76.0904 8.61829 71.615 8.61829C67.1384 8.61829 63.4401 12.1611 63.4401 16.7314C63.4401 21.3006 67.1384 24.8446 71.615 24.8446ZM71.615 20.4606C69.6573 20.4606 68.1647 18.9383 68.1647 16.7314C68.1647 14.5234 69.6573 13 71.615 13C73.5738 13 75.0653 14.5234 75.0653 16.7314C75.0653 18.9383 73.5738 20.4606 71.615 20.4606Z" fill="#000313"/>
</g>
<defs>
<clipPath id="clip0_1_2280">
<rect width="80" height="32" fill="white" transform="translate(0.589844)"/>
</clipPath>
</defs>
</svg>
