<svg width="149" height="32" viewBox="0 0 149 32" fill="none" xmlns="http://www.w3.org/2000/svg">
<g clip-path="url(#clip0_1_2277)">
<path fill-rule="evenodd" clip-rule="evenodd" d="M16.5898 32C25.4264 32 32.5898 24.8366 32.5898 16C32.5898 7.16344 25.4264 0 16.5898 0C7.75328 0 0.589844 7.16344 0.589844 16C0.589844 24.8366 7.75328 32 16.5898 32ZM19.839 12.6769L19.0513 14.6708C19.9128 15.2123 20.4051 16.1723 20.4051 17.1815C20.3559 18.7569 19.0513 19.9877 17.4759 19.9385C15.9005 19.8892 14.6697 18.5846 14.719 17.0092C14.7682 15.5323 15.9497 14.3262 17.4267 14.2523L18.1651 12.2092C15.2113 11.8154 12.479 13.9323 12.479 17.0339V22.1785H14.719V21.3662C15.5559 21.9077 16.5651 22.1785 17.5497 22.1785C20.3067 22.2277 22.5959 20.0123 22.6205 17.2308C22.6697 15.3108 21.5867 13.5385 19.839 12.6769ZM12.479 12.4308C13.119 11.7908 13.882 11.2739 14.719 10.9046V7.68001H12.479V12.4308ZM53.9313 22.2031V7.70462H51.6174V22.2031H53.9313ZM95.7036 22.1785V16.1969C95.6789 13.5631 93.7836 12.0369 91.5189 12.0369C90.1651 12.0123 88.8605 12.6523 88.0482 13.7354C87.3097 12.6523 86.0543 12.0123 84.7251 12.0369C83.5928 12.0369 82.5098 12.5292 81.7713 13.3908V12.2339H79.4574V22.2031H81.7713V16.6154V16.5415C81.7467 15.2369 82.7805 14.1785 84.0851 14.1785C85.4143 14.1785 86.4236 15.0892 86.4236 16.5908V22.1785H88.7374V16.5169V16.4431C88.7374 15.1877 89.7713 14.1785 91.0513 14.1785C92.3559 14.1785 93.3651 15.1139 93.3897 16.5908V22.1785H95.7036ZM103.335 14.4985V12.0369C102.005 12.0123 100.775 12.6031 99.962 13.6369V12.2339H97.6482V22.2031H99.962V17.0339C99.962 15.5077 101.095 14.3508 103.335 14.4985ZM105.993 18.0431H113.845C114.411 14.4 111.753 12.0369 108.873 12.0616H108.676C105.87 12.1108 103.655 14.4246 103.728 17.2308C103.728 20.1108 105.919 22.4 109.095 22.4C111.064 22.4246 112.836 21.3169 113.698 19.5446L111.753 18.7323C111.211 19.7416 110.128 20.3816 108.971 20.3323C107.544 20.3816 106.288 19.4215 105.993 18.0431ZM111.753 16.2708H106.018C106.362 14.9662 107.568 14.0554 108.947 14.08C110.276 14.08 111.433 14.9908 111.753 16.2708ZM125.587 22.1785V12.2092L123.273 12.2339V13.5631C122.436 12.5785 121.205 12.0123 119.925 12.0369C117.144 12.0369 115.076 14.1539 115.076 17.2062C115.076 20.2585 117.144 22.3754 119.925 22.3754C121.23 22.4 122.461 21.8339 123.273 20.8492V22.1785H125.587ZM120.344 14.1292C122.042 14.1292 123.273 15.5077 123.273 17.2062C123.273 18.9046 122.018 20.2831 120.344 20.2831C118.645 20.2831 117.439 18.9046 117.439 17.2062C117.439 15.5077 118.645 14.1292 120.344 14.1292ZM132.43 12.0369C129.55 12.0123 127.211 14.3262 127.211 17.2062V17.4769C127.285 20.2585 129.599 22.4739 132.381 22.4C134.522 22.4492 136.442 21.1692 137.23 19.1754L135.138 18.3631C134.695 19.5446 133.538 20.3077 132.282 20.2585C130.682 20.1846 129.451 18.8308 129.525 17.2308C129.525 15.5569 130.658 14.2031 132.405 14.2031C133.562 14.2277 134.596 14.9169 135.064 15.9754L137.205 15.2369C136.393 13.2923 134.522 12.0369 132.43 12.0369ZM148.282 22.2031V16.4185C148.282 13.6615 146.338 12.0369 144.024 12.0369C142.793 12.0123 141.611 12.5785 140.824 13.5139V7.70462H138.51V22.2031H140.824V16.8369V16.6646C140.848 15.2615 142.005 14.1539 143.408 14.1785C144.836 14.1785 145.968 15.1385 145.968 16.7877V22.2031H148.282ZM41.6728 7.68001V12.9231C42.5343 12.3816 43.519 12.1108 44.479 12.1354C45.1436 12.1108 45.8082 12.2339 46.4236 12.48C47.5805 12.9969 48.4913 13.9077 49.0082 15.04C50.2143 17.6246 49.0574 20.7262 46.4482 21.9077C45.8328 22.1539 45.1682 22.2769 44.5036 22.2769C43.519 22.2769 42.5097 22.0062 41.6728 21.4646V22.1785H39.359V7.68001H41.6728ZM41.6728 18.7077C42.1651 19.6431 43.1497 20.2585 44.2328 20.2339C45.8328 20.1846 47.1128 18.9046 47.162 17.3046C47.2113 15.6308 45.9067 14.2277 44.2328 14.1785C43.1743 14.1539 42.1651 14.7446 41.6728 15.7046C41.1805 16.64 41.1805 17.7723 41.6728 18.7077ZM60.8236 11.8646C57.9436 11.9139 55.6051 14.3015 55.6543 17.2062V17.4277C55.7528 20.2585 58.1159 22.4492 60.922 22.3754H60.9959C63.8759 22.3262 66.2143 19.9385 66.1651 17.0339C66.1159 14.1539 63.7282 11.8154 60.8236 11.8646ZM64.0236 17.3046C63.9743 18.9785 62.5713 20.2831 60.8974 20.2339H60.8236C59.199 20.1846 57.919 18.8308 57.9682 17.2062V17.1077C58.0174 15.4339 59.4205 14.1292 61.0943 14.1785C62.7682 14.2277 64.0728 15.6308 64.0236 17.3046ZM72.4913 11.8646C69.5866 11.9139 67.2728 14.3015 67.322 17.2062C67.322 17.28 67.322 17.3539 67.3467 17.4277C67.4205 20.2339 69.7836 22.4492 72.5897 22.3754H72.6636C75.5682 22.3262 77.882 19.9385 77.8328 17.0339C77.7836 14.1292 75.3959 11.8154 72.4913 11.8646ZM75.6913 17.3046C75.642 18.9785 74.239 20.2831 72.5651 20.2339H72.4913C70.8666 20.1846 69.5866 18.8308 69.6359 17.2062V17.1077C69.6851 15.4339 71.0882 14.1292 72.762 14.1785C74.4359 14.2277 75.7405 15.6308 75.6913 17.3046Z" fill="#000313"/>
</g>
<defs>
<clipPath id="clip0_1_2277">
<rect width="148" height="32" fill="white" transform="translate(0.589844)"/>
</clipPath>
</defs>
</svg>
