<svg width="144" height="32" viewBox="0 0 144 32" fill="none" xmlns="http://www.w3.org/2000/svg">
<g clip-path="url(#clip0_1_2283)">
<path d="M116.414 7.77734H143.864L130.14 29.3249L116.414 7.77734ZM119.855 9.64358L130.14 25.7908L140.424 9.64358H119.855Z" fill="#000313"/>
<path d="M116.414 3.06641H143.864L130.14 24.6139L116.414 3.06641ZM119.855 4.93265L130.14 21.0811L140.424 4.93265H119.855Z" fill="#000313"/>
<path d="M11.9502 26.2129C10.0481 26.2129 8.32653 25.8033 6.78669 24.9867C5.29933 24.1841 4.06029 23.0039 3.19885 21.5729C2.32845 20.1163 1.89453 18.4804 1.89453 16.6666C1.89453 14.8529 2.32973 13.2273 3.19885 11.7873C4.05517 10.3422 5.30701 9.15945 6.81357 8.37225C8.35469 7.53769 10.075 7.12041 11.9771 7.12041C13.4632 7.12041 14.8213 7.36873 16.0552 7.86665C17.2661 8.33257 18.3464 9.07241 19.2065 10.0273L17.4401 11.7067C16.0091 10.2308 14.2248 9.49225 12.0872 9.49225C10.6741 9.49225 9.39533 9.80329 8.25357 10.4267C7.13101 11.0308 6.20045 11.9255 5.56429 13.0123C4.92941 14.0977 4.61197 15.3162 4.61197 16.6666C4.61197 18.017 4.92941 19.2433 5.56429 20.3467C6.20685 21.4219 7.13613 22.3076 8.25357 22.9067C9.39533 23.5287 10.6728 23.8398 12.0872 23.8398C14.2069 23.8398 15.9912 23.0923 17.4401 21.5998L19.2065 23.2804C18.3361 24.2404 17.2469 24.9892 16.027 25.4667C14.7957 25.9646 13.4363 26.2129 11.9502 26.2129ZM34.0916 19.0129C34.0916 19.2087 34.0724 19.4673 34.0366 19.7873H22.3515C22.514 21.0302 23.067 22.035 24.0091 22.8004C24.9691 23.5466 26.1556 23.9204 27.5688 23.9204C29.2904 23.9204 30.6766 23.3508 31.7275 22.2129L33.1675 23.8666C32.5057 24.6206 31.666 25.2055 30.7214 25.5729C29.7614 25.9646 28.6836 26.1604 27.4881 26.1604C25.9662 26.1604 24.6158 25.8583 23.4382 25.2529C22.2913 24.6602 21.3403 23.7642 20.6939 22.6673C20.059 21.5639 19.7416 20.3198 19.7416 18.9323C19.7416 17.5639 20.0501 16.3287 20.6657 15.2267C21.3006 14.1233 22.1608 13.2708 23.2475 12.6667C24.3534 12.0433 25.5937 11.7323 26.971 11.7323C28.3483 11.7323 29.572 12.0433 30.6395 12.6667C31.7185 13.2631 32.5966 14.1527 33.1675 15.2267C33.7832 16.3287 34.0916 17.5908 34.0916 19.0129ZM26.971 13.8929C25.7217 13.8929 24.6696 14.2667 23.8171 15.0129C22.9851 15.7591 22.4961 16.7383 22.3515 17.9467H31.5905C31.4459 16.7563 30.948 15.7873 30.0955 15.0398C29.2635 14.2756 28.2216 13.8929 26.971 13.8929ZM39.195 14.2398C39.6481 13.4219 40.3189 12.7998 41.2059 12.3723C42.0942 11.9473 43.172 11.7323 44.4404 11.7323V14.2129C44.2421 14.1924 44.0424 14.1834 43.8427 14.1873C42.4296 14.1873 41.316 14.6046 40.4993 15.4391C39.7032 16.2583 39.3051 17.4308 39.3051 18.9604V26.0004H36.6952V11.8667H39.195V14.2398ZM59.5227 19.0129C59.5227 19.2087 59.5035 19.4673 59.4677 19.7873H47.7825C47.9451 21.0302 48.4981 22.035 49.4401 22.8004C50.4001 23.5466 51.5867 23.9204 52.9998 23.9204C54.7214 23.9204 56.1077 23.3508 57.1585 22.2129L58.5985 23.8666C57.9368 24.6206 57.0971 25.2055 56.1525 25.5729C55.1925 25.9646 54.1147 26.1604 52.9192 26.1604C51.396 26.1604 50.0468 25.8583 48.8692 25.2529C47.7224 24.6602 46.7713 23.7642 46.1249 22.6673C45.4901 21.5639 45.1726 20.3198 45.1726 18.9323C45.1726 17.5639 45.4811 16.3287 46.0968 15.2267C46.7316 14.1233 47.5918 13.2708 48.6785 12.6667C49.7845 12.0433 51.0248 11.7323 52.4021 11.7323C53.7793 11.7323 55.003 12.0433 56.0705 12.6667C57.1496 13.2631 58.0276 14.1527 58.5985 15.2267C59.2142 16.3287 59.5227 17.5908 59.5227 19.0129ZM52.4021 13.8929C51.1528 13.8929 50.1006 14.2667 49.2494 15.0129C48.4161 15.7591 47.9272 16.7383 47.7825 17.9467H57.0216C56.8769 16.7563 56.379 15.7873 55.5265 15.0398C54.6945 14.2756 53.6526 13.8929 52.4021 13.8929ZM69.764 11.7323C71.1579 11.7323 72.4084 12.0356 73.5131 12.6398C74.6024 13.2286 75.4984 14.1067 76.0961 15.1729C76.7297 16.2583 77.0459 17.5102 77.0459 18.9323C77.0459 20.3543 76.7284 21.6177 76.0961 22.7198C75.4984 23.786 74.6024 24.6641 73.5131 25.2529C72.4072 25.8583 71.1579 26.1604 69.764 26.1604C68.6939 26.1604 67.716 25.9556 66.8277 25.5473C65.9496 25.1454 65.1905 24.5297 64.626 23.7604V26.0004H62.1262V6.21289H64.7348V14.0004C65.298 13.2657 66.0481 12.6871 66.9096 12.3198C67.78 11.9294 68.7297 11.7323 69.764 11.7323ZM69.5451 23.9204C70.4705 23.9204 71.2949 23.7143 72.0181 23.3073C72.7541 22.8887 73.3556 22.2794 73.7588 21.5473C74.1928 20.7818 74.4104 19.9102 74.4104 18.9323C74.4104 17.9556 74.1928 17.0929 73.7576 16.3467C73.3659 15.6068 72.7617 14.9963 72.0181 14.5866C71.2949 14.1771 70.4705 13.9723 69.5451 13.9723C68.6798 13.9633 67.8273 14.1745 67.0721 14.5866C66.3297 14.995 65.7243 15.6068 65.3326 16.3467C64.9153 17.0929 64.708 17.9543 64.708 18.9323C64.708 19.9102 64.9153 20.7831 65.3326 21.5473C65.7345 22.2794 66.3374 22.8874 67.0721 23.3073C67.8145 23.7156 68.6388 23.9204 69.5451 23.9204ZM82.1326 14.2398C82.5844 13.4219 83.2552 12.7998 84.1435 12.3723C85.0318 11.9473 86.1096 11.7323 87.3768 11.7323V14.2129C87.1784 14.1924 86.9787 14.1834 86.779 14.1873C85.3659 14.1873 84.2523 14.6046 83.4369 15.4391C82.6395 16.2583 82.2414 17.4308 82.2414 18.9604V26.0004H79.6315V11.8667H82.1326V14.2398ZM94.7931 11.7323C96.7861 11.7323 98.308 12.2123 99.3576 13.1723C100.428 14.1323 100.961 15.5646 100.961 17.4667V26.0004H98.4885V24.1329C98.0545 24.7908 97.4286 25.2977 96.6133 25.6523C95.8171 25.9902 94.8661 26.1604 93.7601 26.1604C92.1486 26.1604 90.852 25.7777 89.8741 25.0123C88.9128 24.2494 88.4328 23.2433 88.4328 22.0004C88.4328 20.7562 88.8949 19.7604 89.819 19.0129C90.7432 18.2487 92.2101 17.8673 94.2222 17.8673H98.3528V17.3604C98.3528 16.2583 98.0264 15.4122 97.3749 14.8273C96.7221 14.2398 95.7621 13.9467 94.4936 13.9467C93.6424 13.9467 92.8091 14.0887 91.9937 14.3729C91.1784 14.6404 90.4897 15.0052 89.9278 15.4673L88.8411 13.5473C89.5835 12.9598 90.4718 12.5143 91.5035 12.2123C92.5685 11.8884 93.6782 11.7259 94.7931 11.7323ZM94.1953 24.1866C95.1912 24.1866 96.0513 23.9729 96.7771 23.5466C97.4965 23.1089 98.0494 22.4535 98.354 21.6804V19.7066H94.3297C92.1205 19.7066 91.0145 20.4363 91.0145 21.8929C91.0145 22.6046 91.2961 23.1639 91.8568 23.5723C92.42 23.9831 93.1982 24.1866 94.1953 24.1866ZM104.771 6.21289H107.381V26.0004H104.771V6.21289Z" fill="#000313"/>
</g>
<defs>
<clipPath id="clip0_1_2283">
<rect width="143.36" height="32" fill="white" transform="translate(0.589844)"/>
</clipPath>
</defs>
</svg>
