<svg width="125" height="32" viewBox="0 0 125 32" fill="none" xmlns="http://www.w3.org/2000/svg">
<g clip-path="url(#clip0_1_2269)">
<path d="M8.91036 31.4136C7.22311 31.3346 5.77417 30.9924 4.56977 30.3887C3.43086 29.8178 2.59768 29.0798 1.88149 28.0074C0.907539 26.549 0.46553 24.8837 0.331421 22.1675C0.291115 21.351 0.290328 10.6811 0.330527 9.88552C0.443868 7.64196 0.737727 6.20831 1.34291 4.94645C2.64097 2.23987 5.04303 0.824508 8.71637 0.601808C11.2215 0.449936 13.541 0.977228 15.1636 2.0674C15.7256 2.44502 16.3633 3.02968 16.8008 3.56841C17.5519 4.49333 18.0272 5.5529 18.2958 6.90119C18.4826 7.83844 18.5355 8.49068 18.5556 10.1019L18.5721 11.4373H15.9615H13.3509L13.3332 10.5346C13.3077 9.24177 13.2055 8.4841 12.9551 7.73344C12.7485 7.11392 12.5024 6.68895 12.1234 6.29732C11.4699 5.62184 10.6881 5.33764 9.4923 5.34077C8.2359 5.34408 7.44275 5.61971 6.83549 6.26404C6.03178 7.11679 5.66278 8.49318 5.55149 11.0534C5.50686 12.0801 5.52964 21.3358 5.57826 21.9274C5.71227 23.5579 5.96428 24.5118 6.45027 25.2278C6.89758 25.8869 7.67157 26.3743 8.60451 26.5843C8.89351 26.6494 9.8521 26.6768 10.1852 26.6295C11.5929 26.4298 12.4887 25.6341 12.9645 24.1611C13.202 23.4259 13.3051 22.6517 13.3328 21.3976L13.3512 20.5695H15.9579H18.5647V21.5021C18.5643 22.8368 18.4989 23.7713 18.3392 24.7156C18.0941 26.1648 17.5984 27.3681 16.8694 28.2839C15.4134 30.1131 13.3815 31.1323 10.716 31.3707C10.3279 31.4053 9.27056 31.4305 8.91036 31.4136ZM31.6212 31.402C28.8709 31.232 26.7853 30.2901 25.3481 28.5691C24.1723 27.1608 23.594 25.6139 23.3562 23.2404C23.2704 22.384 23.2471 21.8895 23.2295 20.5546L23.2118 19.2116L29.6615 15.7088C33.2088 13.7822 36.1339 12.1893 36.1616 12.1691C36.2085 12.1349 36.2094 12.0699 36.1761 11.27C36.1104 9.69624 36.0303 8.95916 35.8407 8.18688C35.414 6.44861 34.5531 5.59405 33.0089 5.37614C32.6194 5.32119 31.7682 5.32998 31.4122 5.39262C30.438 5.56405 29.6964 6.02574 29.2046 6.76688C28.8058 7.36786 28.5849 8.00264 28.4877 8.82655C28.4459 9.18181 28.3853 10.5495 28.3838 11.1762L28.3831 11.4373H25.768H23.153L23.1727 10.7137C23.2747 6.98091 23.496 5.82751 24.4007 4.31438C24.7092 3.7985 25.0436 3.37229 25.4861 2.93102C26.2181 2.20131 26.9929 1.70016 28.0204 1.29207C30.4929 0.310097 34.23 0.347882 36.6647 1.37947C37.9506 1.92439 39.0272 2.77982 39.72 3.80735C40.7486 5.33273 41.2479 7.14866 41.3955 9.90044C41.4425 10.7761 41.419 22.719 41.3693 23.2703C41.1362 25.8525 40.7337 27.1034 39.7343 28.3506C38.5199 29.8664 36.6864 30.8796 34.4861 31.2507C33.6506 31.3917 32.4652 31.4543 31.6212 31.402ZM33.2714 26.7741C34.9574 26.492 35.8366 25.3739 36.1318 23.136C36.1732 22.8224 36.183 22.3601 36.1936 20.2337C36.2006 18.8427 36.1952 17.7046 36.1818 17.7047C36.1684 17.7051 34.4316 18.649 32.3225 19.8027L28.4876 21.9003L28.4778 22.0779C28.4657 22.2966 28.5206 23.0195 28.579 23.4134C28.7234 24.3867 29.0129 25.1524 29.4413 25.6942C30.0907 26.5153 31.1264 26.8993 32.5463 26.8452C32.7597 26.8371 33.086 26.8051 33.2714 26.7741ZM90.7928 31.4026C87.5627 31.2101 85.251 30.0487 83.9318 27.9557C83.0656 26.5815 82.6428 25.0529 82.4253 22.5092C82.3768 21.941 82.3532 10.7706 82.3983 9.6617C82.5174 6.73083 82.928 5.16912 83.9324 3.82732C84.3361 3.28789 85.0604 2.59534 85.6525 2.18244C87.2908 1.04012 89.6302 0.462105 92.0614 0.598933C93.0112 0.652392 93.6375 0.745127 94.413 0.947179C96.406 1.46646 97.9084 2.5165 98.9936 4.14866C99.8997 5.51136 100.313 6.95386 100.516 9.46772C100.534 9.6893 100.556 10.529 100.565 11.3336L100.582 12.7967L94.1296 16.3008C90.581 18.2282 87.6584 19.8192 87.6349 19.8366C87.5985 19.8635 87.5966 19.9717 87.6218 20.5695C87.6987 22.3949 87.7759 23.0895 87.9958 23.9317C88.4235 25.5706 89.2641 26.3927 90.7354 26.6112C91.1385 26.671 91.991 26.6723 92.3533 26.6135C93.3021 26.4596 94.0277 26.0306 94.5499 25.3146C94.8039 24.9662 95.0636 24.3883 95.19 23.8901C95.3309 23.3346 95.4101 22.3508 95.4109 21.1439V20.5695H98.027H100.643L100.623 21.4854C100.557 24.4251 100.341 25.8476 99.7862 26.9931C99.0367 28.5411 97.897 29.702 96.4107 30.4309C95.4111 30.9212 94.246 31.2331 92.9504 31.3572C92.3678 31.413 91.3334 31.4348 90.7928 31.4026ZM91.5208 12.1778L95.3448 10.0864L95.3313 9.76962C95.2215 7.19189 94.4779 5.83151 92.9093 5.33799C92.4816 5.20346 92.134 5.16006 91.487 5.16041C91.0741 5.16064 90.8025 5.17567 90.6062 5.20918C88.8784 5.50402 87.9913 6.57566 87.6983 8.72163C87.6147 9.33386 87.5932 10.042 87.5928 12.1941C87.5928 14.1958 87.5951 14.3076 87.6446 14.2888C87.6733 14.278 89.4176 13.328 91.5208 12.1778ZM113.765 31.4123C110.839 31.2819 108.488 30.2561 107.076 28.4929C106.758 28.0973 106.535 27.7419 106.289 27.2395C105.759 26.1617 105.495 24.9903 105.343 23.0464C105.313 22.6646 105.304 21.0832 105.304 16.0034C105.304 10.9236 105.313 9.34222 105.343 8.96038C105.555 6.24589 106.047 4.74409 107.161 3.40313C108.334 1.99221 110.217 1.03368 112.452 0.711291C113.126 0.614008 113.476 0.591918 114.333 0.592558C115.465 0.593409 116.228 0.676768 117.155 0.901381C118.788 1.29688 120.132 2.03158 121.152 3.08495C122.508 4.4876 123.059 6.03946 123.262 9.03498C123.317 9.84908 123.317 22.1981 123.262 22.9569C123.041 25.9902 122.523 27.479 121.206 28.8643C119.533 30.6242 116.833 31.549 113.765 31.4123ZM115.039 26.6129C116.754 26.3346 117.696 25.099 117.987 22.7434C118.087 21.9389 118.097 21.1987 118.084 15.526C118.071 9.84721 118.07 9.80726 117.957 9.00515C117.662 6.91921 116.805 5.76207 115.313 5.43651C114.563 5.27283 113.615 5.30588 112.961 5.51845C112.68 5.60955 112.298 5.8103 112.069 5.98717C111.309 6.57225 110.809 7.66767 110.618 9.16928C110.515 9.97716 110.507 10.5063 110.52 16.3764C110.532 22.5585 110.528 22.3598 110.676 23.2319C111.016 25.2295 111.947 26.354 113.473 26.6098C113.815 26.6673 114.693 26.6689 115.039 26.6129ZM46.2077 20.368C46.2183 9.03907 46.2101 9.62138 46.3774 8.30382C46.6105 6.4693 47.074 5.08658 47.853 3.90192C49.0759 2.04243 51.1218 0.95945 54.0037 0.646266C54.6552 0.575462 56.0303 0.574532 56.6747 0.644461C58.8027 0.875411 60.3877 1.48258 61.628 2.54191L61.9073 2.7805L62.0142 2.69064C62.9113 1.93636 63.636 1.51805 64.6642 1.16095C66.9036 0.383228 70.0597 0.393381 72.3347 1.18563C74.0752 1.79168 75.3062 2.76639 76.1659 4.21915C76.9213 5.4958 77.3417 6.98793 77.5183 9.02006C77.617 10.1545 77.6244 10.9791 77.6245 20.8902V30.8058H75.0142H72.404L72.3929 21.0395C72.3819 11.3245 72.3795 11.0893 72.2815 9.85567C72.1205 7.82887 71.6012 6.55108 70.68 5.91421C70.1003 5.51347 69.4086 5.33717 68.4327 5.34147C66.1853 5.35135 65.1119 6.44081 64.7351 9.09467C64.67 9.55312 64.627 10.092 64.5829 11.0047C64.5655 11.3626 64.5537 15.4466 64.5535 21.2036L64.5529 30.8058H61.9126H59.2722L59.262 20.8753C59.2544 13.6622 59.2421 10.8183 59.2167 10.4824C59.1495 9.59214 59.1158 9.27045 59.0459 8.85299C58.7241 6.92856 58.0317 5.92403 56.7489 5.51993C56.2631 5.36691 55.5264 5.29756 54.9285 5.34858C53.9925 5.42844 53.3637 5.67036 52.8547 6.14648C52.118 6.83566 51.6862 8.03589 51.5419 9.79599C51.4433 10.9971 51.4415 11.1794 51.4308 20.9798L51.4199 30.8058H48.8088H46.1977L46.2077 20.368Z" fill="#000313"/>
</g>
<defs>
<clipPath id="clip0_1_2269">
<rect width="123.733" height="32" fill="white" transform="translate(0.285156)"/>
</clipPath>
</defs>
</svg>
