<svg width="116" height="28" viewBox="0 0 116 28" fill="none" xmlns="http://www.w3.org/2000/svg">
<path d="M32.276 22.672C30.9709 22.672 29.9343 22.2662 29.1675 21.4537V22.4594H26.8258V7.60338L29.1675 6.86167V12.7588C29.9343 11.9611 30.9709 11.5622 32.276 11.5622C33.8235 11.5622 35.0966 12.104 36.0966 13.1862C37.0978 14.2685 37.5983 15.5794 37.5983 17.1165C37.5983 18.6548 37.0978 19.9668 36.0966 21.048C35.0966 22.1314 33.8235 22.672 32.276 22.672ZM32.0212 20.536C32.9435 20.536 33.7023 20.2045 34.2989 19.5417C34.8943 18.88 35.1926 18.072 35.1926 17.1165C35.1926 16.1634 34.8943 15.3554 34.2989 14.6925C33.7023 14.0297 32.9435 13.6994 32.0212 13.6994C30.8006 13.6994 29.8486 14.1897 29.1686 15.1725V19.04C29.836 20.0365 30.7858 20.536 32.0212 20.536ZM40.9606 9.87424C40.548 9.87881 40.1515 9.7131 39.8646 9.41367C39.564 9.11996 39.3983 8.71424 39.4063 8.29253C39.4018 7.87881 39.5675 7.47996 39.8646 7.1931C40.1515 6.89367 40.548 6.72796 40.9606 6.73253C41.4006 6.73253 41.7732 6.88681 42.0783 7.1931C42.3835 7.49938 42.5366 7.86624 42.5366 8.29253C42.5366 8.73481 42.3835 9.10853 42.0783 9.41481C41.7732 9.7211 41.4018 9.87424 40.9606 9.87424ZM39.7903 22.4605H42.132V11.776H39.7903V22.4605ZM50.1138 22.5645C49.0212 22.5645 48.132 22.2628 47.4429 21.6571C46.7549 21.0514 46.4109 20.1714 46.4109 19.0194V13.8685H43.7709V11.776H46.4109V9.42167L48.7526 8.67767V11.776H52.0098V13.8697H48.7515V18.6342C48.7515 19.8445 49.3046 20.4502 50.412 20.4502C50.9938 20.4502 51.4978 20.3222 51.924 20.0662L52.6269 22.0308C51.8886 22.3874 51.052 22.5645 50.1138 22.5645ZM54.18 27.3451V11.7748H56.5218V12.7588C57.2886 11.9611 58.324 11.5622 59.6303 11.5622C61.1766 11.5622 62.4498 12.104 63.4509 13.1862C64.452 14.2685 64.9515 15.5794 64.9515 17.1165C64.9515 18.6548 64.452 19.9668 63.4509 21.048C62.4498 22.1314 61.1766 22.672 59.6303 22.672C58.324 22.672 57.2886 22.2662 56.5218 21.4537V26.6045L54.18 27.3451ZM59.3743 20.5348C60.2966 20.5348 61.0555 20.2045 61.652 19.5417C62.2486 18.88 62.5469 18.072 62.5469 17.1165C62.5469 16.1634 62.2475 15.3554 61.652 14.6925C61.0555 14.0297 60.2966 13.6994 59.3743 13.6994C58.1538 13.6994 57.2018 14.1897 56.5218 15.1725V19.04C57.1892 20.0365 58.14 20.5348 59.3743 20.5348ZM71.7001 22.672C70.1526 22.672 68.8818 22.1325 67.8886 21.0491C66.8955 19.9657 66.3995 18.656 66.3995 17.1165C66.3995 15.5794 66.8955 14.2685 67.8886 13.1862C68.8818 12.104 70.1526 11.5622 71.7001 11.5622C73.0052 11.5622 74.0418 11.9611 74.8086 12.7588V11.776H77.1503V22.4594H74.8086V21.4537C74.0418 22.2662 73.0052 22.672 71.7001 22.672ZM71.9755 20.536C73.196 20.536 74.14 20.0365 74.8075 19.04V15.1725C74.1263 14.1897 73.1823 13.6994 71.9755 13.6994C71.0543 13.6994 70.2955 14.0297 69.6978 14.6925C69.1023 15.3554 68.804 16.1634 68.804 17.1165C68.804 18.072 69.1023 18.88 69.6978 19.5417C70.2955 20.2045 71.0532 20.536 71.9755 20.536ZM79.6829 22.4594V11.776H82.0235V12.9085C82.7469 12.0114 83.7903 11.5622 85.1526 11.5622C86.4155 11.5622 87.4269 11.9725 88.1858 12.7908C88.9457 13.6102 89.3252 14.7028 89.3252 16.0708V22.4594H86.9835V16.4548C86.9835 15.5862 86.7812 14.9085 86.3766 14.4251C85.972 13.9405 85.3949 13.6994 84.6418 13.6994C83.3926 13.6994 82.5206 14.2617 82.0235 15.3874V22.4594H79.6829ZM96.6692 22.672C95.1229 22.672 93.852 22.1325 92.8589 21.0491C91.8658 19.9657 91.3686 18.656 91.3686 17.1165C91.3686 15.5794 91.8658 14.2685 92.8589 13.1862C93.852 12.104 95.1229 11.5622 96.6692 11.5622C97.9743 11.5622 99.0109 11.9611 99.7778 12.7588V7.60338L102.119 6.86167V22.4594H99.7778V21.4537C99.0109 22.2662 97.9743 22.672 96.6692 22.672ZM96.9458 20.536C98.1663 20.536 99.1103 20.0365 99.7778 19.04V15.1725C99.0966 14.1897 98.1526 13.6994 96.9458 13.6994C96.0235 13.6994 95.2646 14.0297 94.668 14.6925C94.0726 15.3554 93.7743 16.1634 93.7743 17.1165C93.7743 18.072 94.0726 18.88 94.668 19.5417C95.2646 20.2045 96.0235 20.536 96.9458 20.536ZM109.634 22.672C108.086 22.672 106.815 22.1325 105.822 21.0491C104.829 19.9657 104.333 18.656 104.333 17.1165C104.333 15.5794 104.829 14.2685 105.822 13.1862C106.815 12.104 108.086 11.5622 109.634 11.5622C110.939 11.5622 111.974 11.9611 112.741 12.7588V11.776H115.083V22.4594H112.741V21.4537C111.974 22.2662 110.939 22.672 109.634 22.672ZM109.909 20.536C111.13 20.536 112.075 20.0365 112.741 19.04V15.1725C112.059 14.1897 111.116 13.6994 109.909 13.6994C108.988 13.6994 108.228 14.0297 107.631 14.6925C107.036 15.3554 106.738 16.1634 106.738 17.1165C106.738 18.072 107.036 18.88 107.631 19.5417C108.228 20.2045 108.988 20.536 109.909 20.536ZM12.7332 5.39653L12.2715 5.54281V7.28338C12.2692 8.15881 11.708 8.93481 10.8795 9.20796L6.14348 10.7051V13.2845L12.3675 11.3154C13.844 10.8537 14.724 9.57481 14.724 7.89367V6.74053C14.724 5.95196 13.8246 5.0491 12.732 5.39538L12.7332 5.39653ZM2.83033 4.66053L11.628 1.87767C12.588 1.57367 13.3503 1.59081 13.8098 1.64453L12.708 0.836528C12.1995 0.466242 10.6486 -0.398901 8.73662 0.212528L0.378906 2.85824L2.83033 4.66053Z" fill="#000313"/>
<path d="M16.2326 12.3002C16.2326 12.3002 17.7869 10.8842 17.7869 7.84302V6.55502C17.7869 4.55273 15.4886 1.29788 11.8086 2.46474L3.08062 5.22702V21.4716L5.53205 20.6956V16.7024L13.4086 14.2099C14.8772 13.7493 16.1012 14.9059 16.1012 16.1916V17.7744C16.1012 19.387 14.6829 21.6727 12.46 22.3733L0.378906 26.1962L2.83033 27.9996L13.7115 24.5562C16.0098 23.8224 18.5526 21.8442 18.5526 17.6442V16.0282C18.5526 13.4876 16.2326 12.3002 16.2326 12.3002ZM12.5515 11.9024L5.53091 14.123V7.03045L12.5458 4.81102C14.0098 4.35045 15.3355 5.52416 15.3355 6.73902L15.3366 7.89445C15.3366 9.91502 14.2349 11.3722 12.5515 11.9024Z" fill="#000313"/>
<path d="M15.4876 17.7752V16.1947C15.4876 15.2998 14.6282 14.4689 13.5905 14.7981L13.0362 14.9729V17.1638C13.0396 18.2381 12.3448 19.1889 11.3231 19.5089L2.46591 22.3101V5.15694L0.015625 3.35352V25.6667L12.2728 21.7878C14.1962 21.1798 15.4876 19.2221 15.4876 17.7752Z" fill="#000313"/>
</svg>
