<svg width="36" height="36" viewBox="0 0 36 36" fill="none" xmlns="http://www.w3.org/2000/svg">
<g clip-path="url(#clip0_1_2310)">
<path d="M18.0127 8.06903C18.0757 7.19597 18.364 6.35417 18.8495 5.62581C19.335 4.89745 20.001 4.30741 20.7826 3.91329C21.5642 3.51916 22.4346 3.33443 23.3089 3.37712C24.1832 3.41981 25.0315 3.68845 25.7709 4.15684C25.8555 4.21216 25.9236 4.28922 25.968 4.37994C26.0125 4.47066 26.0317 4.57168 26.0237 4.6724C26.0156 4.77311 25.9806 4.86979 25.9222 4.95229C25.8639 5.03478 25.7844 5.10004 25.6922 5.14121C24.4067 5.71956 23.3155 6.65672 22.5497 7.84013C21.7839 9.02354 21.376 10.4029 21.375 11.8125C21.375 11.977 21.375 12.1415 21.3919 12.3032C21.3996 12.4055 21.3793 12.5079 21.3331 12.5994C21.2869 12.6909 21.2165 12.768 21.1297 12.8224C21.0428 12.8769 20.9427 12.9065 20.8402 12.9082C20.7377 12.9099 20.6367 12.8835 20.5481 12.832C19.7194 12.358 19.0416 11.6592 18.5929 10.8165C18.1443 9.97369 17.9431 9.02123 18.0127 8.06903ZM33.75 22.5857C33.752 23.2286 33.5739 23.8591 33.2359 24.4059C32.8979 24.9527 32.4134 25.3939 31.8375 25.6795L31.7756 25.7076L26.3152 28.0336C26.2612 28.0573 26.2052 28.0762 26.1478 28.0898L17.1478 30.3398C17.0587 30.3627 16.967 30.3745 16.875 30.375H2.25C1.65326 30.375 1.08097 30.1379 0.65901 29.716C0.237053 29.294 0 28.7217 0 28.125V22.5C0 21.9032 0.237053 21.3309 0.65901 20.909C1.08097 20.487 1.65326 20.25 2.25 20.25H6.28453L9.46547 17.0676C9.88257 16.6487 10.3786 16.3165 10.9248 16.0903C11.471 15.8642 12.0566 15.7485 12.6478 15.75H19.6875C20.2817 15.7499 20.8683 15.8843 21.4032 16.1432C21.9381 16.4021 22.4074 16.7786 22.7761 17.2447C23.1448 17.7108 23.4031 18.2542 23.5319 18.8344C23.6606 19.4145 23.6564 20.0162 23.5195 20.5945L29.4033 19.2417C29.9155 19.106 30.452 19.0898 30.9715 19.1943C31.4909 19.2987 31.9795 19.5211 32.3995 19.8442C32.8194 20.1673 33.1596 20.5825 33.3937 21.0578C33.6279 21.5331 33.7498 22.0559 33.75 22.5857ZM31.5 22.5857C31.4998 22.3997 31.4568 22.2163 31.3742 22.0496C31.2917 21.8829 31.1719 21.7374 31.024 21.6246C30.8762 21.5117 30.7043 21.4344 30.5218 21.3986C30.3392 21.3629 30.1509 21.3697 29.9714 21.4186L29.9278 21.4298L20.5059 23.5968C20.4233 23.6153 20.3389 23.6247 20.2542 23.625H15.75C15.4516 23.625 15.1655 23.5064 14.9545 23.2955C14.7435 23.0845 14.625 22.7983 14.625 22.5C14.625 22.2016 14.7435 21.9154 14.9545 21.7045C15.1655 21.4935 15.4516 21.375 15.75 21.375H19.6875C20.135 21.375 20.5643 21.1972 20.8807 20.8807C21.1972 20.5642 21.375 20.135 21.375 19.6875C21.375 19.2399 21.1972 18.8107 20.8807 18.4942C20.5643 18.1778 20.135 18 19.6875 18H12.6478C12.3522 17.999 12.0594 18.0568 11.7864 18.1701C11.5133 18.2833 11.2655 18.4497 11.0573 18.6595L7.875 21.8404V28.125H16.7344L25.5136 25.9298L30.8573 23.6545C31.0518 23.552 31.2146 23.3982 31.3279 23.2098C31.4412 23.0214 31.5007 22.8056 31.5 22.5857ZM23.625 11.8125C23.625 12.8137 23.9219 13.7925 24.4782 14.625C25.0345 15.4576 25.8251 16.1064 26.7502 16.4896C27.6752 16.8728 28.6931 16.973 29.6751 16.7777C30.6572 16.5824 31.5592 16.1002 32.2672 15.3922C32.9752 14.6842 33.4574 13.7821 33.6527 12.8001C33.8481 11.8181 33.7478 10.8002 33.3646 9.87513C32.9815 8.95008 32.3326 8.15942 31.5001 7.60315C30.6675 7.04687 29.6888 6.74996 28.6875 6.74996C27.3448 6.74996 26.0572 7.28333 25.1078 8.23274C24.1584 9.18214 23.625 10.4698 23.625 11.8125Z" fill="#14191F"/>
</g>
<defs>
<clipPath id="clip0_1_2310">
<rect width="36" height="36" fill="white"/>
</clipPath>
</defs>
</svg>
