<svg width="36" height="36" viewBox="0 0 36 36" fill="none" xmlns="http://www.w3.org/2000/svg">
<g clip-path="url(#clip0_1_2331)">
<path d="M25.875 10.125H5.625C4.38236 10.125 3.375 11.1324 3.375 12.375V28.125C3.375 29.3676 4.38236 30.375 5.625 30.375H25.875C27.1176 30.375 28.125 29.3676 28.125 28.125V12.375C28.125 11.1324 27.1176 10.125 25.875 10.125Z" fill="#14191F"/>
<path d="M30.375 5.625H9C8.70163 5.625 8.41548 5.74353 8.20451 5.95451C7.99353 6.16548 7.875 6.45163 7.875 6.75C7.875 7.04837 7.99353 7.33452 8.20451 7.54549C8.41548 7.75647 8.70163 7.875 9 7.875H30.375V24.75C30.375 25.0484 30.4935 25.3345 30.7045 25.5455C30.9155 25.7565 31.2016 25.875 31.5 25.875C31.7984 25.875 32.0845 25.7565 32.2955 25.5455C32.5065 25.3345 32.625 25.0484 32.625 24.75V7.875C32.625 7.27826 32.3879 6.70597 31.966 6.28401C31.544 5.86205 30.9717 5.625 30.375 5.625Z" fill="#14191F"/>
</g>
<defs>
<clipPath id="clip0_1_2331">
<rect width="36" height="36" fill="white"/>
</clipPath>
</defs>
</svg>
